<svg xmlns="http://www.w3.org/2000/svg" width="57.178" height="52.841" viewBox="0 0 57.178 52.841">
    <path data-name="Path 1" d="M248.529 17.936c1.566.921 3.062 1.81 4.569 2.679a.7.7 0 0 1 .418.7q-.021 7.221 0 14.442c0 .4-.107.488-.5.487q-7.793-.021-15.585 0c-.381 0-.467-.1-.464-.471q.025-3.574 0-7.149c0-.339.1-.418.423-.416 2.288.014 4.576 0 6.863.016.336 0 .42-.087.416-.419-.018-1.62-.011-3.241 0-4.861 0-.238-.019-.4-.292-.5q-4.571-1.741-9.132-3.51a.539.539 0 0 0-.1-.016.831.831 0 0 0-.049.5v16.11a.718.718 0 0 1-.763.8c-2.605.008-5.211 0-7.816.008-.218 0-.282-.077-.258-.276a2.035 2.035 0 0 0 0-.238q0-17.492-.009-34.984c0-.421.087-.547.533-.546q11.153.024 22.306.006a4.325 4.325 0 0 1 4.26 2.7 1.679 1.679 0 0 1 .164.731q-.008 5 .005 10.009a.742.742 0 0 1-.343.666c-1.535 1.15-3.057 2.318-4.646 3.532zm-13.417-1.242a1.279 1.279 0 0 0 .2-.056q4.548-2.214 9.1-4.425a.437.437 0 0 0 .262-.484c-.008-1.017-.021-2.034.006-3.05.009-.356-.118-.4-.431-.4q-4.36.018-8.721 0c-.359 0-.442.088-.44.443.017 2.526.009 5.051.01 7.577-.005.121.002.245.013.395z" transform="translate(-196.338 -.249)" style="fill-rule:evenodd;fill:#f9f9f9"/>
    <path data-name="Path 2" d="M10.094 18.834c.036-.177.188-.25.3-.354q3.426-3.279 6.855-6.555a1 1 0 0 1 .752-.31c3.019.012 6.037.016 9.056 0 .408 0 .485.113.485.5q-.019 10.557 0 21.115a2.47 2.47 0 0 1-1.415 2.288 4.087 4.087 0 0 1-2.076.421H4.414a6.315 6.315 0 0 1-1.144-.089 3.257 3.257 0 0 1-2.811-3.087 12.452 12.452 0 0 1-.072-1.331Q.381 17.275.378 3.119a1.859 1.859 0 0 1 .269-.987A3.975 3.975 0 0 1 4.279.016q11.439.006 22.879 0c.117 0 .28-.073.346.063.084.174-.1.246-.2.333Q23.147 4.1 18.99 7.775a.751.751 0 0 1-.567.163c-2.955 0-5.91.006-8.865-.009-.346 0-.446.068-.446.434q.019 9.6 0 19.209c0 .342.063.451.433.449q4.409-.027 8.818 0c.355 0 .45-.086.448-.445q-.024-4.123 0-8.246c0-.4-.139-.456-.488-.454-2.59.013-5.179.008-7.769 0a.8.8 0 0 1-.46-.042z" transform="translate(-.378 -.001)" style="fill-rule:evenodd;fill:#f9f9f9"/>
    <g data-name="Group 1">
        <path data-name="Path 3" d="M2.018 289.391h9.038a1.384 1.384 0 0 1 1.094 1.571v11.053H8.829v-5.8l-3.491 1.7v5.869l-3.321-1.806v-5.544l6.811-3.522v-.885H5.339v2.1l-3.321 1.734z" transform="translate(-1.801 -251.071)" style="fill:#f9f9f9"/>
        <path data-name="Path 4" d="M93.3 297.579v4.208l-3.208 1.986v-14.412l3.208 2.926v1.734l1.925 1.246 1.566-.975v-2.131H93.77l-3.264-2.908h8.6a2.037 2.037 0 0 1 1.17 1.987v4.732l-2.151 1.138 2.132 1.355v3.594l-2.906 1.734V300.2z" transform="translate(-78.211 -250.951)" style="fill:#f9f9f9"/>
        <path data-name="Path 5" d="M177.6 289.253h7.378l2.774 2.89h-6.793v1.357h2.491l2.585 2.872h-5.076v2.709h3.887l2.754 2.819h-10v-12.647z" transform="translate(-154.129 -250.951)" style="fill:#f9f9f9"/>
        <path data-name="Path 6" d="M265.387 289.391h3.095v2.456l3.793 3.215v-5.671h3.094V302h-3.132v-2.89l-3.755-3.11v6h-3.094v-12.609z" transform="translate(-230.295 -251.071)" style="fill:#f9f9f9"/>
        <path data-name="Path 7" d="M353.462 289.391h9.038a1.384 1.384 0 0 1 1.094 1.571v11.053h-3.321v-5.8l-3.491 1.7v5.869l-3.321-1.806v-5.544l6.812-3.522v-.885h-3.491v2.1l-3.321 1.734z" transform="translate(-306.707 -251.071)" style="fill:#f9f9f9"/>
    </g>
</svg>
